<svg xmlns="http://www.w3.org/2000/svg" viewBox="0 0 114.4232555245018 93.406734906257"
  height="93.406734906257" width="114.4232555245018">
  <g>
    <svg xmlns:dc="http://purl.org/dc/elements/1.1/" xmlns:cc="http://creativecommons.org/ns#"
      xmlns:rdf="http://www.w3.org/1999/02/22-rdf-syntax-ns#" xmlns:svg="http://www.w3.org/2000/svg"
      xmlns="http://www.w3.org/2000/svg"
      xmlns:sodipodi="http://sodipodi.sourceforge.net/DTD/sodipodi-0.dtd"
      xmlns:inkscape="http://www.inkscape.org/namespaces/inkscape" version="1.1" x="0" y="0"
      viewBox="0.9999983372998268 10.000003 98.00000666270016 80.00000175833233"
      enable-background="new 0 0 100 100" xml:space="preserve" height="93.406734906257"
      width="114.4232555245018" class="icon-cg-0" data-fill-palette-color="accent" id="cg-0"><path d="M1.016 60.496c-0.463 13.395 9.526 18.91 9.526 18.91 0.218-0.106 3.988-2.048 7.008-10.933z" fill="#18d902" fill-opacity="1" fill-rule="evenodd" stroke="none" data-fill-palette-color="accent"/><path d="M57.288 10c-9.61 0-34.24 3.231-35.009 34.614-0.769 31.383-10.717 35.967-10.717 35.967 35.673 19.073 81.513 11.46 76.449-44.015 0-20.52-21.112-26.566-30.723-26.566zM70.999 24.779c5.222 0 9.458 4.435 9.459 9.9 0 5.465-4.237 9.9-9.459 9.899-5.222 0-9.458-4.435-9.458-9.899 0-5.465 4.237-9.9 9.458-9.9z" fill="#18d902" fill-opacity="1" fill-rule="evenodd" stroke="none" data-fill-palette-color="accent"/><path d="M89.168 37.563c0.48 5.922 0.381 11.295-0.239 16.132 0.018 0.02 0.016 0.052 0.034 0.071l10.037-8.226-9.832-7.977z" fill="#18d902" fill-opacity="1" fill-rule="evenodd" stroke="none" data-fill-palette-color="accent"/><path d="M75.179 34.68c0 2.421-1.875 4.384-4.189 4.384-2.313 0-4.189-1.963-4.189-4.384 0-2.421 1.875-4.384 4.189-4.385 2.313 0 4.189 1.963 4.189 4.385z" fill="#18d902" fill-opacity="1" fill-rule="nonzero" stroke="none" marker="none" visibility="visible" display="inline" overflow="visible" enable-background="accumulate" data-fill-palette-color="accent"/></svg>
  </g>
</svg>